<svg width="48" height="48" viewBox="0 0 48 48" fill="none" xmlns="http://www.w3.org/2000/svg">
<g clip-path="url(#clip0_34_52)">
<path d="M17.08 21.46C16.88 20.84 16.7 20.24 16.5 19.62C16.3 19 16.12 18.42 15.96 17.84C15.8 17.28 15.66 16.76 15.52 16.28H15.48C15.3 17.14 15.08 18 14.8 18.86C14.5 19.82 14.2 20.82 13.88 21.82C13.62 22.84 13.3 23.78 13 24.62H18.08C17.96 24.2 17.8 23.7 17.62 23.18C17.44 22.64 17.26 22.06 17.08 21.46ZM34.24 20.88C33.14 20.82 32.1 21.4 31.58 22.4C31.34 22.86 31.2 23.34 31.14 23.84H35.358C35.878 23.84 36.258 23.84 36.498 23.82C36.658 23.8 36.818 23.76 36.958 23.66V23.46C36.9502 23.1117 36.8736 22.7684 36.7326 22.4499C36.5915 22.1314 36.3888 21.8439 36.1362 21.6041C35.8835 21.3643 35.5859 21.1768 35.2605 21.0525C34.935 20.9283 34.5882 20.8696 34.24 20.88ZM39.5 0.600006H8.5C3.8 0.600006 0 4.40001 0 9.10001V38.9C0 43.6 3.8 47.4 8.5 47.4H39.5C44.2 47.4 48 43.6 48 38.9V9.10001C48 4.40001 44.2 0.600006 39.5 0.600006ZM25.42 33.622H21.24C21.1 33.642 20.96 33.54 20.92 33.402L19.28 28.602H11.84L10.32 33.322C10.28 33.502 10.12 33.622 9.94 33.602H6.18C5.96 33.602 5.9 33.482 5.96 33.242L12.4 14.78C12.46 14.58 12.52 14.4 12.6 14.16C12.68 13.74 12.72 13.3 12.72 12.86C12.7 12.76 12.78 12.66 12.88 12.64H18.06C18.2 12.64 18.3 12.7 18.32 12.8L25.62 33.3C25.68 33.52 25.622 33.622 25.42 33.622ZM41.122 25.64C41.08 26.018 41.06 26.3 41.04 26.48C41.02 26.62 40.902 26.74 40.76 26.74C40.64 26.74 40.42 26.76 40.1 26.782C39.782 26.822 39.4 26.84 38.942 26.84C38.482 26.84 38 26.76 37.482 26.76H31.142C31.22 27.38 31.422 28 31.762 28.54C32.1159 29.0783 32.6241 29.4972 33.22 29.742C34.02 30.082 34.902 30.262 35.782 30.242C36.482 30.22 37.18 30.162 37.86 30.022C38.4709 29.944 39.0696 29.7895 39.642 29.562C39.742 29.484 39.802 29.522 39.802 29.722V32.784C39.802 32.862 39.782 32.944 39.76 33.022C39.7241 33.0776 39.6771 33.1253 39.622 33.162C38.982 33.442 38.322 33.642 37.622 33.762C36.68 33.942 35.742 34.022 34.782 34.002C33.26 34.002 31.982 33.762 30.942 33.302C29.9636 32.8759 29.0995 32.2249 28.42 31.402C27.782 30.622 27.32 29.742 27.04 28.782C26.7601 27.8333 26.6193 26.8491 26.622 25.86C26.622 24.782 26.782 23.72 27.122 22.68C27.442 21.68 27.942 20.76 28.622 19.94C29.282 19.14 30.1 18.5 31.04 18.04C31.982 17.58 33.1 17.42 34.38 17.42C35.4464 17.3951 36.5052 17.6069 37.48 18.04C38.3 18.4 39.02 18.94 39.58 19.64C40.1 20.32 40.52 21.08 40.782 21.92C41.04 22.72 41.16 23.54 41.16 24.36C41.16 24.84 41.14 25.26 41.122 25.64Z" fill="#9531FF"/>
</g>
<defs>
<clipPath id="clip0_34_52">
<rect width="48" height="48" fill="white"/>
</clipPath>
</defs>
</svg>
