<svg width="49" height="48" viewBox="0 0 49 48" fill="none" xmlns="http://www.w3.org/2000/svg">
<path d="M30.9972 17.336C32.7297 17.284 34.3739 16.5592 35.581 15.3153C36.7881 14.0715 37.4632 12.4063 37.4632 10.673C37.4632 8.9397 36.7881 7.27455 35.581 6.03067C34.3739 4.78679 32.7297 4.06201 30.9972 4.01001H17.6692C15.9367 4.06201 14.2925 4.78679 13.0854 6.03067C11.8783 7.27455 11.2032 8.9397 11.2032 10.673C11.2032 12.4063 11.8783 14.0715 13.0854 15.3153C14.2925 16.5592 15.9367 17.284 17.6692 17.336C15.9215 17.3663 14.2557 18.0818 13.0304 19.3284C11.8052 20.5751 11.1187 22.2531 11.1187 24.001C11.1187 25.7489 11.8052 27.4269 13.0304 28.6736C14.2557 29.9202 15.9215 30.6357 17.6692 30.666C15.9301 30.7086 14.2765 31.4294 13.0615 32.6745C11.8466 33.9196 11.1665 35.5904 11.1665 37.33C11.1665 39.0697 11.8466 40.7404 13.0615 41.9855C14.2765 43.2306 15.9301 43.9514 17.6692 43.994C19.4366 43.993 21.1313 43.2902 22.3809 42.0403C23.6305 40.7903 24.3327 39.0954 24.3332 37.328V17.336H30.9972Z" fill="#FF3C3C"/>
<path d="M30.9973 30.664C34.6777 30.664 37.6613 27.6804 37.6613 24C37.6613 20.3196 34.6777 17.336 30.9973 17.336C27.3168 17.336 24.3333 20.3196 24.3333 24C24.3333 27.6804 27.3168 30.664 30.9973 30.664Z" fill="#FF3C3C"/>
</svg>
