<svg width="48" height="48" viewBox="0 0 48 48" fill="none" xmlns="http://www.w3.org/2000/svg">
<path d="M24.854 26.022C24.928 24.688 25.58 23.514 26.566 22.68C27.6012 21.8189 28.9075 21.3514 30.254 21.36C31.674 21.36 32.974 21.86 33.944 22.68C34.928 23.514 35.582 24.69 35.656 26.022C35.732 27.394 35.182 28.668 34.214 29.612C33.1485 30.6286 31.7286 31.1896 30.256 31.176C28.782 31.1905 27.3606 30.6294 26.294 29.612C25.328 28.668 24.776 27.394 24.854 26.022Z" fill="#2A7FFF"/>
<path d="M16.248 28.722C16.258 29.242 16.426 30.256 16.674 31.05C17.2144 32.7576 18.1208 34.3268 19.33 35.648C20.6263 37.0746 22.2096 38.2108 23.976 38.982C25.8974 39.8296 27.976 40.2624 30.076 40.252C32.178 40.2546 34.257 39.8151 36.178 38.962C37.9421 38.1814 39.5233 37.0403 40.82 35.612C42.0268 34.2866 42.9316 32.7151 43.472 31.006C43.7358 30.1711 43.9036 29.3089 43.972 28.436C44.1606 25.912 43.5384 23.3938 42.196 21.248C41.3768 19.938 40.3304 18.7846 39.106 17.842L39.108 17.84L26.61 8.24201L26.578 8.21402C25.756 7.58602 24.376 7.58802 23.476 8.21802C22.562 8.85602 22.46 9.91002 23.268 10.578L23.266 10.58L28.478 14.822L12.592 14.84H12.568C11.256 14.84 9.99403 15.704 9.74403 16.792C9.48803 17.902 10.38 18.822 11.746 18.826L11.744 18.832L19.798 18.816L5.42203 29.848L5.36803 29.89C4.01403 30.928 3.57603 32.654 4.42803 33.748C5.29603 34.86 7.13603 34.86 8.50803 33.752L16.352 27.334C16.354 27.334 16.24 28.2 16.248 28.722ZM36.404 31.622C34.788 33.27 32.528 34.204 30.078 34.208C27.626 34.212 25.366 33.286 23.748 31.642C22.9831 30.8763 22.3936 29.9538 22.02 28.938C21.6672 27.9721 21.5313 26.9404 21.622 25.916C21.71 24.906 22.008 23.942 22.49 23.072C22.962 22.214 23.614 21.442 24.414 20.784C26.0187 19.4937 28.019 18.7958 30.078 18.808C32.1351 18.7915 34.1352 19.4836 35.742 20.768C36.54 21.42 37.192 22.19 37.664 23.046C38.144 23.918 38.444 24.878 38.532 25.888C38.6223 26.9122 38.4871 27.9437 38.136 28.91C37.7587 29.9272 37.1681 30.8518 36.404 31.622Z" fill="#FF7B29"/>
</svg>
