<svg width="49" height="48" viewBox="0 0 49 48" fill="none" xmlns="http://www.w3.org/2000/svg">
<g clip-path="url(#clip0_34_57)">
<path d="M46.9665 5.17399L37.0865 0.419986C36.5281 0.151099 35.9 0.0624768 35.289 0.166393C34.678 0.270308 34.1145 0.56162 33.6765 0.999986L14.7565 18.26L6.51646 12.004C6.14471 11.722 5.68599 11.579 5.21986 11.5999C4.75373 11.6207 4.30959 11.804 3.96446 12.118L1.32046 14.522C1.11442 14.7093 0.949762 14.9375 0.837026 15.1922C0.72429 15.4468 0.66596 15.7221 0.665772 16.0005C0.665584 16.279 0.723541 16.5544 0.835932 16.8092C0.948324 17.0639 1.11267 17.2924 1.31846 17.48L8.46446 24L1.31846 30.52C1.11267 30.7076 0.948324 30.936 0.835932 31.1908C0.723541 31.4456 0.665584 31.721 0.665772 31.9994C0.66596 32.2779 0.72429 32.5532 0.837026 32.8078C0.949762 33.0624 1.11442 33.2907 1.32046 33.478L3.96646 35.88C4.31159 36.194 4.75573 36.3773 5.22186 36.3981C5.68799 36.4189 6.14671 36.276 6.51846 35.994L14.7585 29.738L33.6785 46.998C34.116 47.4364 34.6792 47.7278 35.2899 47.8318C35.9006 47.9357 36.5285 47.847 37.0865 47.578L46.9705 42.824C47.479 42.5786 47.9079 42.1946 48.2079 41.7163C48.5079 41.2379 48.6669 40.6846 48.6665 40.12V7.87799C48.6665 7.31292 48.507 6.75932 48.2062 6.28094C47.9055 5.80256 47.4757 5.41885 46.9665 5.17399ZM36.6745 34.896L22.3185 24L36.6745 13.104V34.896Z" fill="#237EFF"/>
</g>
<defs>
<clipPath id="clip0_34_57">
<rect width="48" height="48" fill="white" transform="translate(0.666504)"/>
</clipPath>
</defs>
</svg>
